<svg xmlns="http://www.w3.org/2000/svg" xmlns:xlink="http://www.w3.org/1999/xlink" width="728" zoomAndPan="magnify" viewBox="0 0 546 58.499998" height="78" preserveAspectRatio="xMidYMid meet" version="1.0"><defs><g/><clipPath id="29142cb582"><path d="M 3.410156 9.550781 L 28 9.550781 L 28 48.21875 L 3.410156 48.21875 Z M 3.410156 9.550781 " clip-rule="nonzero"/></clipPath><clipPath id="11dd26e1c4"><path d="M 14 9.550781 L 56.953125 9.550781 L 56.953125 48.21875 L 14 48.21875 Z M 14 9.550781 " clip-rule="nonzero"/></clipPath><clipPath id="22c48647e0"><path d="M 26 27 L 46 27 L 46 48.21875 L 26 48.21875 Z M 26 27 " clip-rule="nonzero"/></clipPath></defs><g fill="#000000" fill-opacity="1"><g transform="translate(225.834309, 48.764069)"><g><path d="M 21.484375 -29.09375 L 21.484375 -26.265625 L 7.8125 -26.265625 L 7.8125 -15.671875 L 20.109375 -15.671875 L 20.109375 -12.828125 L 7.8125 -12.828125 L 7.8125 0 L 4.390625 0 L 4.390625 -29.09375 Z M 21.484375 -29.09375 "/></g></g></g><g fill="#000000" fill-opacity="1"><g transform="translate(248.888534, 48.764069)"><g><path d="M 3.828125 0 L 3.828125 -21.953125 L 6.90625 -21.953125 L 6.90625 -18.5 L 7.328125 -18.40625 C 8.347656 -20.894531 10.269531 -22.140625 13.09375 -22.140625 C 14.59375 -22.140625 15.710938 -21.867188 16.453125 -21.328125 L 15.625 -18.578125 L 15.21875 -18.5 C 14.394531 -18.914062 13.492188 -19.125 12.515625 -19.125 C 10.765625 -19.125 9.414062 -18.46875 8.46875 -17.15625 C 7.53125 -15.84375 7.0625 -13.710938 7.0625 -10.765625 L 7.0625 0 Z M 3.828125 0 "/></g></g></g><g fill="#000000" fill-opacity="1"><g transform="translate(265.836073, 48.764069)"><g><path d="M 12.59375 0.421875 C 10.519531 0.421875 8.71875 -0.015625 7.1875 -0.890625 C 5.65625 -1.765625 4.472656 -3.054688 3.640625 -4.765625 C 2.816406 -6.472656 2.40625 -8.539062 2.40625 -10.96875 C 2.40625 -13.394531 2.816406 -15.460938 3.640625 -17.171875 C 4.472656 -18.878906 5.65625 -20.171875 7.1875 -21.046875 C 8.71875 -21.921875 10.519531 -22.359375 12.59375 -22.359375 C 14.664062 -22.359375 16.46875 -21.921875 18 -21.046875 C 19.53125 -20.171875 20.707031 -18.878906 21.53125 -17.171875 C 22.363281 -15.460938 22.78125 -13.394531 22.78125 -10.96875 C 22.78125 -8.539062 22.363281 -6.472656 21.53125 -4.765625 C 20.707031 -3.054688 19.53125 -1.765625 18 -0.890625 C 16.46875 -0.015625 14.664062 0.421875 12.59375 0.421875 Z M 12.59375 -2.484375 C 14.78125 -2.484375 16.453125 -3.171875 17.609375 -4.546875 C 18.773438 -5.929688 19.359375 -8.070312 19.359375 -10.96875 C 19.359375 -13.875 18.773438 -16.015625 17.609375 -17.390625 C 16.453125 -18.765625 14.78125 -19.453125 12.59375 -19.453125 C 10.40625 -19.453125 8.726562 -18.757812 7.5625 -17.375 C 6.394531 -15.988281 5.8125 -13.851562 5.8125 -10.96875 C 5.8125 -8.070312 6.394531 -5.929688 7.5625 -4.546875 C 8.726562 -3.171875 10.40625 -2.484375 12.59375 -2.484375 Z M 12.59375 -2.484375 "/></g></g></g><g fill="#000000" fill-opacity="1"><g transform="translate(291.018686, 48.764069)"><g><path d="M 3.828125 0 L 3.828125 -21.953125 L 6.90625 -21.953125 L 6.90625 -18.5 L 7.328125 -18.40625 C 8.054688 -19.6875 8.984375 -20.664062 10.109375 -21.34375 C 11.242188 -22.019531 12.628906 -22.359375 14.265625 -22.359375 C 16.898438 -22.359375 18.8125 -21.6875 20 -20.34375 C 21.1875 -19 21.78125 -16.925781 21.78125 -14.125 L 21.78125 0 L 18.546875 0 L 18.546875 -14.046875 C 18.546875 -15.367188 18.375 -16.429688 18.03125 -17.234375 C 17.695312 -18.035156 17.175781 -18.617188 16.46875 -18.984375 C 15.757812 -19.359375 14.828125 -19.546875 13.671875 -19.546875 C 11.691406 -19.546875 10.09375 -18.890625 8.875 -17.578125 C 7.664062 -16.273438 7.0625 -14.171875 7.0625 -11.265625 L 7.0625 0 Z M 3.828125 0 "/></g></g></g><g fill="#000000" fill-opacity="1"><g transform="translate(316.280864, 48.764069)"><g><path d="M 14.84375 -3.484375 L 15.875 -1.15625 C 15.363281 -0.632812 14.6875 -0.242188 13.84375 0.015625 C 13 0.285156 12.085938 0.421875 11.109375 0.421875 C 6.910156 0.421875 4.8125 -1.703125 4.8125 -5.953125 L 4.8125 -19.28125 L 1 -19.28125 L 1 -21.953125 L 4.8125 -21.953125 L 4.8125 -26.609375 L 8.0625 -27.140625 L 8.0625 -21.953125 L 15.125 -21.953125 L 15.125 -19.28125 L 8.0625 -19.28125 L 8.0625 -6.265625 C 8.0625 -3.742188 9.15625 -2.484375 11.34375 -2.484375 C 12.53125 -2.484375 13.554688 -2.816406 14.421875 -3.484375 Z M 14.84375 -3.484375 "/></g></g></g><g fill="#000000" fill-opacity="1"><g transform="translate(332.989706, 48.764069)"><g><path d="M 20.90625 -10.234375 L 5.828125 -10.1875 C 5.929688 -7.53125 6.578125 -5.582031 7.765625 -4.34375 C 8.953125 -3.101562 10.578125 -2.484375 12.640625 -2.484375 C 14.203125 -2.484375 15.457031 -2.757812 16.40625 -3.3125 C 17.363281 -3.875 18.113281 -4.753906 18.65625 -5.953125 L 19.078125 -5.953125 L 21.1875 -4.703125 C 20.550781 -3.109375 19.53125 -1.851562 18.125 -0.9375 C 16.726562 -0.03125 14.898438 0.421875 12.640625 0.421875 C 10.515625 0.421875 8.6875 0.00390625 7.15625 -0.828125 C 5.632812 -1.671875 4.460938 -2.941406 3.640625 -4.640625 C 2.816406 -6.335938 2.40625 -8.445312 2.40625 -10.96875 C 2.40625 -13.457031 2.835938 -15.554688 3.703125 -17.265625 C 4.578125 -18.984375 5.765625 -20.257812 7.265625 -21.09375 C 8.773438 -21.9375 10.5 -22.359375 12.4375 -22.359375 C 15.25 -22.359375 17.441406 -21.566406 19.015625 -19.984375 C 20.597656 -18.398438 21.394531 -16.050781 21.40625 -12.9375 C 21.40625 -11.71875 21.378906 -10.894531 21.328125 -10.46875 Z M 18.203125 -12.9375 C 18.148438 -15.269531 17.632812 -16.96875 16.65625 -18.03125 C 15.675781 -19.09375 14.269531 -19.625 12.4375 -19.625 C 10.507812 -19.625 9 -19.085938 7.90625 -18.015625 C 6.8125 -16.953125 6.144531 -15.257812 5.90625 -12.9375 Z M 18.203125 -12.9375 "/></g></g></g><g fill="#000000" fill-opacity="1"><g transform="translate(356.382085, 48.764069)"><g><path d="M 3.828125 0 L 3.828125 -21.953125 L 6.90625 -21.953125 L 6.90625 -18.5 L 7.328125 -18.40625 C 8.054688 -19.6875 8.984375 -20.664062 10.109375 -21.34375 C 11.242188 -22.019531 12.628906 -22.359375 14.265625 -22.359375 C 16.898438 -22.359375 18.8125 -21.6875 20 -20.34375 C 21.1875 -19 21.78125 -16.925781 21.78125 -14.125 L 21.78125 0 L 18.546875 0 L 18.546875 -14.046875 C 18.546875 -15.367188 18.375 -16.429688 18.03125 -17.234375 C 17.695312 -18.035156 17.175781 -18.617188 16.46875 -18.984375 C 15.757812 -19.359375 14.828125 -19.546875 13.671875 -19.546875 C 11.691406 -19.546875 10.09375 -18.890625 8.875 -17.578125 C 7.664062 -16.273438 7.0625 -14.171875 7.0625 -11.265625 L 7.0625 0 Z M 3.828125 0 "/></g></g></g><g fill="#000000" fill-opacity="1"><g transform="translate(381.644263, 48.764069)"><g><path d="M 11.375 0.421875 C 9.613281 0.421875 8.0625 0 6.71875 -0.84375 C 5.375 -1.6875 4.316406 -2.957031 3.546875 -4.65625 C 2.785156 -6.351562 2.40625 -8.457031 2.40625 -10.96875 C 2.40625 -13.46875 2.800781 -15.570312 3.59375 -17.28125 C 4.394531 -18.988281 5.492188 -20.257812 6.890625 -21.09375 C 8.296875 -21.9375 9.921875 -22.359375 11.765625 -22.359375 C 13.222656 -22.359375 14.535156 -22.082031 15.703125 -21.53125 C 16.867188 -20.988281 17.867188 -20.085938 18.703125 -18.828125 L 19.125 -18.90625 L 19.125 -30.765625 L 22.359375 -30.765625 L 22.359375 0 L 19.125 0 L 19.125 -3.203125 L 18.703125 -3.28125 C 17.984375 -2.195312 17.007812 -1.304688 15.78125 -0.609375 C 14.5625 0.078125 13.09375 0.421875 11.375 0.421875 Z M 12.390625 -2.484375 C 14.429688 -2.484375 16.0625 -3.179688 17.28125 -4.578125 C 18.507812 -5.984375 19.125 -8.113281 19.125 -10.96875 C 19.125 -13.832031 18.507812 -15.960938 17.28125 -17.359375 C 16.0625 -18.753906 14.429688 -19.453125 12.390625 -19.453125 C 10.285156 -19.453125 8.660156 -18.769531 7.515625 -17.40625 C 6.378906 -16.039062 5.8125 -13.894531 5.8125 -10.96875 C 5.8125 -5.3125 8.003906 -2.484375 12.390625 -2.484375 Z M 12.390625 -2.484375 "/></g></g></g><g clip-path="url(#29142cb582)"><path fill="#000000" d="M 21.625 9.550781 L 3.410156 48.214844 L 9.101562 48.214844 L 27.316406 9.550781 Z M 21.625 9.550781 " fill-opacity="1" fill-rule="nonzero"/></g><g clip-path="url(#11dd26e1c4)"><path fill="#000000" d="M 38.738281 9.550781 L 33.046875 9.550781 L 14.792969 48.214844 L 20.523438 48.214844 L 35.894531 15.59375 L 51.261719 48.214844 L 56.953125 48.214844 Z M 38.738281 9.550781 " fill-opacity="1" fill-rule="nonzero"/></g><g clip-path="url(#22c48647e0)"><path fill="#000000" d="M 33.007812 33.765625 L 37.449219 43.109375 L 28.605469 43.109375 L 26.214844 48.214844 L 45.53125 48.214844 L 35.894531 27.683594 Z M 33.007812 33.765625 " fill-opacity="1" fill-rule="nonzero"/></g><g fill="#000000" fill-opacity="1"><g transform="translate(61.035814, 48.297842)"><g><path d="M 24.09375 -19.375 L 24.09375 -31.0625 L 30.21875 -31.0625 L 30.21875 0 L 24.09375 0 L 24.09375 -14.15625 L 10.171875 -14.15625 L 10.171875 0 L 4.03125 0 L 4.03125 -31.0625 L 10.171875 -31.0625 L 10.171875 -19.375 Z M 24.09375 -19.375 "/></g></g></g><g fill="#000000" fill-opacity="1"><g transform="translate(95.30797, 48.297842)"><g><path d="M 6.3125 -26.234375 C 5.25 -26.234375 4.382812 -26.554688 3.71875 -27.203125 C 3.050781 -27.847656 2.71875 -28.679688 2.71875 -29.703125 C 2.71875 -30.710938 3.050781 -31.535156 3.71875 -32.171875 C 4.382812 -32.816406 5.25 -33.140625 6.3125 -33.140625 C 7.019531 -33.140625 7.648438 -32.988281 8.203125 -32.6875 C 8.753906 -32.394531 9.179688 -31.988281 9.484375 -31.46875 C 9.785156 -30.957031 9.9375 -30.367188 9.9375 -29.703125 C 9.9375 -29.035156 9.785156 -28.441406 9.484375 -27.921875 C 9.179688 -27.398438 8.753906 -26.988281 8.203125 -26.6875 C 7.648438 -26.382812 7.019531 -26.234375 6.3125 -26.234375 Z M 9.265625 0 L 3.375 0 L 3.375 -23.4375 L 9.265625 -23.4375 Z M 9.265625 0 "/></g></g></g><g fill="#000000" fill-opacity="1"><g transform="translate(107.92896, 48.297842)"><g><path d="M 13.65625 0.453125 C 11.394531 0.453125 9.390625 -0.015625 7.640625 -0.953125 C 5.898438 -1.898438 4.539062 -3.285156 3.5625 -5.109375 C 2.59375 -6.941406 2.109375 -9.140625 2.109375 -11.703125 C 2.109375 -14.285156 2.59375 -16.488281 3.5625 -18.3125 C 4.539062 -20.144531 5.894531 -21.53125 7.625 -22.46875 C 9.351562 -23.40625 11.332031 -23.875 13.5625 -23.875 C 18.5 -23.875 21.660156 -22.082031 23.046875 -18.5 L 19.015625 -15.609375 L 18.578125 -15.609375 C 18.085938 -16.722656 17.457031 -17.546875 16.6875 -18.078125 C 15.914062 -18.617188 14.875 -18.890625 13.5625 -18.890625 C 11.851562 -18.890625 10.523438 -18.300781 9.578125 -17.125 C 8.628906 -15.945312 8.15625 -14.140625 8.15625 -11.703125 C 8.15625 -9.296875 8.632812 -7.5 9.59375 -6.3125 C 10.5625 -5.132812 11.914062 -4.546875 13.65625 -4.546875 C 14.9375 -4.546875 16.019531 -4.890625 16.90625 -5.578125 C 17.789062 -6.265625 18.421875 -7.253906 18.796875 -8.546875 L 19.25 -8.578125 L 23.4375 -6.296875 C 22.84375 -4.304688 21.738281 -2.679688 20.125 -1.421875 C 18.519531 -0.171875 16.363281 0.453125 13.65625 0.453125 Z M 13.65625 0.453125 "/></g></g></g><g fill="#000000" fill-opacity="1"><g transform="translate(132.087325, 48.297842)"><g><path d="M 3.375 0 L 3.375 -32.84375 L 9.265625 -32.84375 L 9.265625 -20.375 L 9.703125 -20.296875 C 10.484375 -21.441406 11.441406 -22.320312 12.578125 -22.9375 C 13.710938 -23.5625 15.078125 -23.875 16.671875 -23.875 C 21.847656 -23.875 24.4375 -20.945312 24.4375 -15.09375 L 24.4375 0 L 18.546875 0 L 18.546875 -14.34375 C 18.546875 -15.945312 18.226562 -17.109375 17.59375 -17.828125 C 16.957031 -18.546875 15.96875 -18.90625 14.625 -18.90625 C 12.976562 -18.90625 11.671875 -18.351562 10.703125 -17.25 C 9.742188 -16.15625 9.265625 -14.445312 9.265625 -12.125 L 9.265625 0 Z M 3.375 0 "/></g></g></g><g fill="#000000" fill-opacity="1"><g transform="translate(159.539041, 48.297842)"><g><path d="M 9.140625 0.453125 C 7.640625 0.453125 6.332031 0.175781 5.21875 -0.375 C 4.113281 -0.9375 3.265625 -1.75 2.671875 -2.8125 C 2.078125 -3.882812 1.78125 -5.171875 1.78125 -6.671875 C 1.78125 -8.054688 2.078125 -9.21875 2.671875 -10.15625 C 3.265625 -11.101562 4.1875 -11.878906 5.4375 -12.484375 C 6.6875 -13.085938 8.316406 -13.550781 10.328125 -13.875 C 11.734375 -14.101562 12.800781 -14.347656 13.53125 -14.609375 C 14.257812 -14.878906 14.75 -15.1875 15 -15.53125 C 15.257812 -15.875 15.390625 -16.304688 15.390625 -16.828125 C 15.390625 -17.578125 15.125 -18.148438 14.59375 -18.546875 C 14.070312 -18.941406 13.203125 -19.140625 11.984375 -19.140625 C 10.679688 -19.140625 9.441406 -18.847656 8.265625 -18.265625 C 7.085938 -17.691406 6.066406 -16.929688 5.203125 -15.984375 L 4.78125 -15.984375 L 2.3125 -19.703125 C 3.5 -21.015625 4.953125 -22.035156 6.671875 -22.765625 C 8.390625 -23.503906 10.257812 -23.875 12.28125 -23.875 C 15.382812 -23.875 17.628906 -23.21875 19.015625 -21.90625 C 20.398438 -20.59375 21.09375 -18.722656 21.09375 -16.296875 L 21.09375 -6.125 C 21.09375 -5.070312 21.554688 -4.546875 22.484375 -4.546875 C 22.835938 -4.546875 23.179688 -4.609375 23.515625 -4.734375 L 23.8125 -4.65625 L 24.25 -0.546875 C 23.914062 -0.335938 23.457031 -0.164062 22.875 -0.03125 C 22.300781 0.101562 21.664062 0.171875 20.96875 0.171875 C 19.570312 0.171875 18.476562 -0.09375 17.6875 -0.625 C 16.90625 -1.164062 16.34375 -2.015625 16 -3.171875 L 15.546875 -3.203125 C 14.398438 -0.765625 12.265625 0.453125 9.140625 0.453125 Z M 11 -3.953125 C 12.363281 -3.953125 13.453125 -4.40625 14.265625 -5.3125 C 15.078125 -6.226562 15.484375 -7.503906 15.484375 -9.140625 L 15.484375 -11.515625 L 15.09375 -11.59375 C 14.738281 -11.3125 14.269531 -11.078125 13.6875 -10.890625 C 13.113281 -10.703125 12.289062 -10.515625 11.21875 -10.328125 C 9.945312 -10.109375 9.03125 -9.738281 8.46875 -9.21875 C 7.90625 -8.707031 7.625 -7.976562 7.625 -7.03125 C 7.625 -6.03125 7.921875 -5.265625 8.515625 -4.734375 C 9.109375 -4.210938 9.9375 -3.953125 11 -3.953125 Z M 11 -3.953125 "/></g></g></g><g fill="#000000" fill-opacity="1"><g transform="translate(184.249841, 48.297842)"><g><path d="M 3.375 0 L 3.375 -23.4375 L 9.03125 -23.4375 L 9.03125 -20.296875 L 9.46875 -20.203125 C 10.238281 -21.460938 11.132812 -22.390625 12.15625 -22.984375 C 13.1875 -23.578125 14.503906 -23.875 16.109375 -23.875 C 17.878906 -23.875 19.300781 -23.523438 20.375 -22.828125 C 21.445312 -22.128906 22.234375 -21.109375 22.734375 -19.765625 L 23.1875 -19.765625 C 23.90625 -21.160156 24.832031 -22.191406 25.96875 -22.859375 C 27.113281 -23.535156 28.535156 -23.875 30.234375 -23.875 C 35.097656 -23.875 37.53125 -21.171875 37.53125 -15.765625 L 37.53125 0 L 31.640625 0 L 31.640625 -15.015625 C 31.640625 -16.390625 31.367188 -17.378906 30.828125 -17.984375 C 30.285156 -18.597656 29.421875 -18.90625 28.234375 -18.90625 C 25.003906 -18.90625 23.390625 -16.75 23.390625 -12.4375 L 23.390625 0 L 17.515625 0 L 17.515625 -15.015625 C 17.515625 -16.390625 17.238281 -17.378906 16.6875 -17.984375 C 16.144531 -18.597656 15.28125 -18.90625 14.09375 -18.90625 C 12.570312 -18.90625 11.382812 -18.398438 10.53125 -17.390625 C 9.6875 -16.378906 9.265625 -14.769531 9.265625 -12.5625 L 9.265625 0 Z M 3.375 0 "/></g></g></g></svg>